<?xml version="1.0" encoding="UTF-8"?><svg id="Layer_1" xmlns="http://www.w3.org/2000/svg" viewBox="0 0 100 100"><defs><style>.cls-1{fill:none;stroke:#000;stroke-linecap:round;stroke-miterlimit:10;stroke-width:5px;}</style></defs><path d="m50,31.55c10.17,0,18.45,8.28,18.45,18.45s-8.28,18.45-18.45,18.45-18.45-8.28-18.45-18.45,8.28-18.45,18.45-18.45m0-4c-12.4,0-22.45,10.05-22.45,22.45s10.05,22.45,22.45,22.45,22.45-10.05,22.45-22.45-10.05-22.45-22.45-22.45h0Z"/><line class="cls-1" x1="79.49" y1="20.51" x2="69.99" y2="30.01"/><line class="cls-1" x1="91.71" y1="50" x2="78.27" y2="50"/><line class="cls-1" x1="79.49" y1="79.49" x2="69.99" y2="69.99"/><line class="cls-1" x1="50" y1="91.71" x2="50" y2="78.27"/><line class="cls-1" x1="20.51" y1="79.49" x2="30.01" y2="69.99"/><line class="cls-1" x1="8.29" y1="50" x2="21.73" y2="50"/><line class="cls-1" x1="20.51" y1="20.51" x2="30.01" y2="30.01"/><line class="cls-1" x1="50" y1="8.29" x2="50" y2="21.73"/></svg>